<?xml version="1.0" encoding="UTF-8" standalone="no"?>
<!-- Created with Inkscape (http://www.inkscape.org/) -->

<svg
   width="210mm"
   height="210mm"
   viewBox="0 0 210 210"
   version="1.1"
   id="svg6127"
   inkscape:version="1.2.2 (b0a84865, 2022-12-01)"
   sodipodi:docname="circle-logo.svg"
   xmlns:inkscape="http://www.inkscape.org/namespaces/inkscape"
   xmlns:sodipodi="http://sodipodi.sourceforge.net/DTD/sodipodi-0.dtd"
   xmlns="http://www.w3.org/2000/svg"
   xmlns:svg="http://www.w3.org/2000/svg">
  <sodipodi:namedview
     id="namedview6129"
     pagecolor="#ffffff"
     bordercolor="#000000"
     borderopacity="0.25"
     inkscape:showpageshadow="2"
     inkscape:pageopacity="0.0"
     inkscape:pagecheckerboard="0"
     inkscape:deskcolor="#d1d1d1"
     inkscape:document-units="mm"
     showgrid="false"
     inkscape:zoom="0.2102413"
     inkscape:cx="397.16269"
     inkscape:cy="561.25984"
     inkscape:window-width="1309"
     inkscape:window-height="456"
     inkscape:window-x="0"
     inkscape:window-y="34"
     inkscape:window-maximized="0"
     inkscape:current-layer="layer1" />
  <defs
     id="defs6124" />
  <g
     inkscape:label="Layer 1"
     inkscape:groupmode="layer"
     id="layer1">
    <ellipse
       style="display:inline;fill:#a5a4a4;fill-opacity:1;stroke-width:0.271021"
       id="path4587"
       cx="107.59958"
       cy="101.93644"
       rx="78.030342"
       ry="77.660522" />
    <path
       style="fill:#ee1718;stroke-width:1.00039"
       d="m 131.92401,145.78967 c -6.62255,-7.74621 -12.52912,-14.70502 -13.1257,-15.46401 l -1.08468,-1.37998 -10.95633,4.30484 -10.956324,4.30485 0.298509,7.12491 0.298509,7.12493 H 94.39333 92.388666 l -0.681142,-5.98417 -0.681143,-5.98418 H 90.23576 c -0.434842,0 -2.923885,0.90891 -5.531209,2.01979 -2.607322,1.11088 -4.922397,1.83908 -5.14461,1.61821 -0.222214,-0.22087 1.858832,-3.91215 4.624546,-8.20284 2.765714,-4.2907 4.902646,-7.92643 4.748739,-8.07941 -0.237346,-0.23591 -15.534168,3.60013 -20.966711,5.25791 l -1.745601,0.53268 0.534516,-4.30273 0.534516,-4.30272 -0.795749,-0.99736 c -0.437663,-0.54855 -6.199516,-4.54282 -12.804118,-8.87616 l -12.008368,-7.87879 2.225046,-1.46846 2.225045,-1.46846 v -1.89289 c 0,-1.04109 -1.128845,-4.654229 -2.508544,-8.029199 -1.379699,-3.37497 -2.508544,-6.23241 -2.508544,-6.34987 0,-0.11746 3.254497,-0.15228 7.232214,-0.0774 l 7.232215,0.13617 1.005713,-2.99209 c 0.553142,-1.64565 1.126007,-3.16844 1.273034,-3.38399 0.147027,-0.21555 3.169538,2.14071 6.71669,5.23615 3.547154,3.09543 6.944399,5.62806 7.549435,5.62806 h 1.100064 v -1.51448 c 0,-1.22054 -5.85717,-20.21052 -7.758446,-25.15426 l -0.475346,-1.23601 4.630171,2.03578 4.63017,2.03579 0.88831,-0.54569 c 0.48857,-0.30013 2.136804,-4.02613 3.662743,-8.28 1.525939,-4.25387 3.106372,-8.114411 3.512073,-8.57899 l 0.737639,-0.844687 4.264154,6.330177 c 2.345285,3.4816 4.938532,7.1082 5.762769,8.05912 l 1.498615,1.72893 4.053265,-2.96281 c 2.229294,-1.62955 4.191924,-2.825 4.361404,-2.65655 0.16947,0.16845 -0.16744,5.36894 -0.74868,11.55665 -0.58125,6.1877 -0.91385,11.37411 -0.73913,11.52535 0.17473,0.15124 1.28136,0.56889 2.45918,0.92811 l 2.14148,0.65313 3.758,-5.1993 3.75801,-5.19931 1.96069,2.67535 c 1.07838,1.47145 2.33324,2.67535 2.78857,2.67535 0.45534,0 4.82017,-6.28161 9.69963,-13.95915 l 8.87175,-13.959147 0.28844,1.746567 c 0.15864,0.96061 0.83595,10.2461 1.50513,20.63442 l 1.21668,18.88784 20.54536,5.0953 20.54536,5.095289 -1.1226,0.68963 c -0.61745,0.37929 -8.66861,3.61945 -17.89148,7.20036 -9.22289,3.5809 -17.52673,6.91388 -18.45299,7.40661 l -1.68413,0.89588 1.2928,17.28495 c 0.71105,9.50672 1.17774,18.53934 1.03709,20.07249 l -0.25573,2.78754 z"
       id="path4359" />
    <path
       style="fill:#5e5e5e;stroke-width:1.00039"
       d="m 131.92401,145.78967 c -6.62255,-7.74621 -12.53672,-14.71535 -13.14258,-15.48696 l -1.10157,-1.40293 -8.9326,3.50521 c -4.91294,1.92786 -9.835689,3.87915 -10.939449,4.33619 -1.103759,0.45704 -2.232604,0.87091 -2.508544,0.91972 -0.27594,0.0488 -3.846775,1.4598 -7.935189,3.13556 -4.088415,1.67574 -7.609223,2.87214 -7.82402,2.65863 -0.214796,-0.21349 4.216763,-7.50574 9.84791,-16.20497 5.631147,-8.69924 10.418618,-16.50161 10.638822,-17.3386 l 0.40038,-1.52179 -13.098444,-15.362279 c -7.204142,-8.44925 -12.974783,-15.48518 -12.823646,-15.63541 0.151137,-0.15022 9.285816,1.96443 20.299287,4.69922 l 20.024493,4.97236 1.02195,-1.5376 c 0.56206,-0.84568 5.53732,-8.71754 11.05612,-17.49301 l 10.03417,-15.955417 0.28844,1.746187 c 0.15864,0.9604 0.83595,10.24572 1.50513,20.63403 l 1.21668,18.88785 20.54536,5.09529 20.54536,5.095299 -1.1226,0.68962 c -0.61745,0.37929 -8.66861,3.61946 -17.89148,7.20036 -9.22289,3.58091 -17.52673,6.91388 -18.45299,7.40662 l -1.68413,0.89587 1.2928,17.28495 c 0.71105,9.50672 1.17774,18.53934 1.03709,20.07249 l -0.25573,2.78754 z"
       id="path4279" />
    <path
       style="fill:#223186;stroke-width:1.00039"
       d="m 132.37499,145.61744 c -6.23188,-7.29347 -12.1073,-14.09718 -13.05649,-15.11939 l -1.72579,-1.85854 -18.298756,7.13359 c -10.064315,3.92347 -18.46147,6.97185 -18.660345,6.77418 -0.305505,-0.30366 6.129392,-10.81006 17.938726,-29.28893 l 2.644365,-4.13783 -9.154416,-10.822609 c -5.03493,-5.95239 -11.120768,-13.13045 -13.524082,-15.9512 l -4.369663,-5.12864 19.345268,4.85396 c 10.639903,2.66967 19.870243,4.86535 20.511863,4.87929 l 1.1666,0.0253 10.87441,-17.17001 10.87442,-17.170013 1.32212,19.912763 1.32212,19.91275 1.29017,1.0004 c 0.7096,0.55022 9.48406,3.00116 19.4988,5.44654 10.01475,2.445379 18.20862,4.730189 18.20862,5.077349 0,0.34717 -8.35345,3.90106 -18.56322,7.89755 l -18.56323,7.26633 0.0286,1.11767 c 0.0157,0.61472 0.6664,9.40977 1.44596,19.54456 0.77957,10.13479 1.27277,18.57063 1.09602,18.74632 -0.17676,0.17568 -5.42018,-5.64794 -11.65206,-12.94139 z"
       id="path4187" />
    <path
       style="fill:#2c126a;stroke-width:1.00039"
       d="m 91.203084,136.56414 c -0.111508,-2.99042 -0.963448,-8.073 -1.431107,-8.53784 -0.366656,-0.36444 0.642353,-2.06678 8.016066,-13.52418 l 3.448447,-5.35826 -9.164311,-10.834259 c -5.040373,-5.95884 -11.134956,-13.14714 -13.543519,-15.974 l -4.379205,-5.13973 9.822343,2.4525 c 5.402288,1.34887 11.51561,2.89363 13.585159,3.43279 l 3.762813,0.9803 v 1.89742 c 0,1.04358 0.42065,2.15582 0.93477,2.47165 l 0.93476,0.57423 1.4027,-1.99056 1.40271,-1.99056 3.42556,0.97651 c 1.88406,0.53708 3.96743,0.97651 4.62973,0.97651 h 1.20416 l 1.74545,-2.93697 1.74545,-2.93697 4.63739,-1.50766 c 2.55057,-0.82922 5.40691,-1.80118 6.34744,-2.15991 l 1.71004,-0.65225 -0.25967,8.83699 -0.25966,8.83699 2.25769,0.31871 c 1.24172,0.17529 2.25769,0.55634 2.25769,0.84679 0,0.29044 -4.51538,5.354469 -10.03418,11.253389 l -10.03418,10.72531 v 2.41839 2.4184 l 1.64013,2.32747 1.64013,2.32749 -11.42345,-0.24364 c -6.2829,-0.13399 -12.020367,-0.18387 -12.749928,-0.11083 l -1.326475,0.13279 0.67144,5.34159 0.671439,5.34159 -1.602655,0.61128 -1.602655,0.61129 z"
       id="path4099" />
  </g>
</svg>
